PathFileType	4	(X/Y/Z)	OpenSim_Sub04_CSBaseline_Accel.trc
DataRate	CameraRate	NumFrames	NumMarkers	Units	OrigDataRate	OrigDataStartFrame	OrigNumFrames
100	100	20	8	m	100	5052	8083
Frame#	Time	torso_imu_offset_imu	pelvis_imu_offset_imu	tibia_r_imu_offset_imu	femur_r_imu_offset_imu	tibia_l_imu_offset_imu	femur_l_imu_offset_imu	toes_r_imu_offset_imu	toes_l_imu_offset_imu
				X1	Y1	Z1	X2	Y2	Z2	X3	Y3	Z3	X4	Y4	Z4	X5	Y5	Z5	X6	Y6	Z6	X7	Y7	Z7	X8		Y8	Z8	

5052	50.51000000	-7.63493074	0.75150192	8.99306174	9.51424775	1.60263278	3.30206507	10.01127239	2.09941205	0.95575411	9.57898009	-0.26886588	0.20666280	11.01191067	-0.35925212	3.85608805	9.17012808	3.21699756	1.63598200	5.82580713	-0.69269284	8.57876924	16.85062476	1.98751586	3.48113887
5053	50.52000000	-7.68110745	0.71529154	9.09180744	9.53399865	1.64585242	3.32471452	10.16605289	1.74089311	1.23597353	9.90276367	-0.11730499	0.12918491	10.62176449	-0.13176165	3.39908267	9.39417458	3.54302997	1.80803383	5.91871317	-1.43481409	8.11102311	15.57913044	1.15520687	0.99786239
5054	50.53000000	-7.55272092	0.70267821	9.11771820	9.48539178	1.61168012	3.35585355	10.19177859	1.52120554	1.32054297	10.11654240	-0.12943833	-0.21358530	10.17055062	0.45324249	3.01710937	9.78374843	3.83876440	2.08711596	6.11782831	-1.02903141	8.22490693	15.79171553	1.39443178	-0.86397994
5055	50.54000000	-7.44663129	0.68207481	9.16707988	9.33487742	1.63411928	3.33696075	10.09734066	1.35326022	1.30845803	10.11235781	-0.34973329	-0.65300219	9.94313503	1.15249433	2.60785730	10.19913524	4.07226295	2.37188064	6.15213403	-0.98842762	8.14159406	16.08914224	1.18998519	-2.28812820
5056	50.55000000	-7.37103528	0.69508049	9.12466701	9.31122890	1.70958166	3.23829780	10.15730513	1.40294793	1.33448515	9.92779113	-0.64755440	-0.86581051	9.70713093	1.75559589	2.20219925	10.57329156	4.18529853	2.79172081	6.17703360	-1.16151368	8.09778179	15.85801533	0.71562068	-3.34032421
5057	50.56000000	-7.36772716	0.66244310	9.15909055	9.24089777	1.72337582	3.07507703	10.19031675	1.43774896	1.13327068	9.71847182	-1.01892596	-0.86059380	9.52818506	1.78379428	1.82481549	10.63583914	4.43380210	3.23608442	6.25369735	-1.01230595	8.06226513	15.53375549	0.86524871	-3.60983142
5058	50.57000000	-7.28810932	0.63405086	9.14611103	9.17510591	1.68353262	2.85995784	10.20334732	1.69612882	0.89853147	9.47133043	-1.40221473	-0.89505741	9.36089601	0.99768510	1.43881605	10.42618717	4.66520617	3.47826944	6.15272515	-1.18963492	8.10979359	15.17176519	0.98445482	-2.93358361
5059	50.58000000	-7.29400025	0.58576816	9.09476350	9.13980476	1.65429076	2.53465343	10.17139748	2.24293862	0.91112709	9.41929498	-1.63557984	-0.85068579	9.07930991	-0.24183746	1.17449518	9.77421754	4.66184638	3.51861138	6.58558980	-1.13028883	7.79774115	14.79641049	1.58449218	-1.91660480
5060	50.59000000	-7.41811885	0.50333003	9.11028195	9.18094906	1.68495532	2.31008747	10.06402342	2.76568881	0.83780765	9.41513638	-1.67637638	-0.63388696	8.70114387	-1.27165229	1.04566868	9.00561099	4.46165736	3.16649179	6.49707067	-1.15771508	7.87830292	14.10332021	-1.75917518	1.03502082
5061	50.60000000	-7.53586122	0.47254714	9.11623687	9.18535122	1.82003853	2.27718688	10.05655106	3.00819448	0.96928109	9.47086468	-1.54646539	-0.37027824	8.81806241	-2.19291033	0.86831317	8.33172961	3.95053029	2.60797489	6.61381942	-1.32450564	7.89649301	12.63921363	2.49926242	-1.87736115
5062	50.61000000	-7.64662069	0.35047165	9.27596418	9.30003369	2.03354984	2.22330474	10.08784076	2.83918740	1.00933033	9.71862135	-1.43834808	-0.24735382	9.28202246	-2.24287915	0.44571701	7.92451472	3.45861822	1.89341963	6.66516691	-1.11557177	7.94951417	7.16251877	3.75159301	5.03876793
5063	50.62000000	-7.76102506	0.29498564	9.31721186	9.53847171	2.23590450	2.14357109	10.25081187	2.43087546	1.38161260	9.90762930	-1.36335733	-0.21255097	9.03542836	-3.11419291	0.53546906	8.01454851	2.89991365	1.15073395	6.85427987	-1.26564201	7.73659431	9.58817340	5.88243511	16.24625918
5064	50.63000000	-7.90461549	0.28170442	9.29459950	9.94017175	2.46158011	2.31082299	10.51083712	1.86950990	1.53563975	9.96617337	-1.43021312	-0.30570646	9.08999849	-5.03193894	-0.37644819	8.60789342	2.27058149	0.61149093	6.79024917	-1.29244695	8.01947506	5.98025722	2.78482374	17.47021352
5065	50.64000000	-8.18091013	0.26555939	9.40518594	10.07989829	2.27276620	2.64528500	11.24370997	1.08762777	1.66107451	10.13688988	-1.58510019	-0.32387156	9.64043134	-5.37820913	-0.04008732	8.94791801	1.63738120	0.04371348	6.59014539	-1.66128551	8.33091076	2.48334857	-2.40700383	12.70118959
5066	50.65000000	-8.36668703	0.21908053	9.33736851	10.28561451	1.88613640	2.87668911	12.03487685	-0.04643599	2.10203425	10.27858404	-1.73385455	-0.39153390	10.15590519	-3.08526035	1.32182724	9.01100171	1.07451297	-0.16371811	6.28365615	-2.20066369	8.57187798	4.51209776	-4.39069876	11.04640459
5067	50.66000000	-8.26345232	0.10781123	9.39858430	10.35647495	1.40944850	3.23914431	12.62634259	-0.70972113	2.55104375	10.49633836	-2.22015549	-0.43251639	10.34559902	-1.51277076	2.75354484	9.60105491	0.49950921	0.10455819	6.29895286	-2.33781627	8.87994927	7.92383362	0.33437831	13.51461043
5068	50.67000000	-8.32129273	-0.07139119	9.49974731	10.51343545	1.06841021	3.71939392	12.92472073	-0.91684245	2.63897262	10.78479009	-2.52888227	-0.05369362	10.84742073	-2.06867076	3.13417776	10.62907510	-0.07433420	0.36876445	6.70289122	-2.30714394	8.85518099	6.54006143	2.71541435	11.65014193
5069	50.68000000	-8.66542060	-0.15711922	9.42961756	10.55363989	0.85521107	4.32843240	13.30101758	-1.11532299	2.54618396	10.92330912	-2.94043789	0.19643311	11.58209175	-2.88290531	2.36419200	12.12935059	-0.64342579	0.63875080	6.57631429	-3.08097662	8.99457762	10.32382304	15.55567422	14.38619606
5070	50.69000000	-8.94583556	-0.34770647	9.34191365	10.60281818	0.69968938	5.00958015	13.85018593	-1.07862695	3.02568748	10.98908098	-3.41019101	0.14119294	12.40433844	-2.12759624	0.32534289	13.76800201	-0.18235567	0.55658730	6.54057803	-3.38822340	8.86944614	13.91554948	10.97643552	11.04796202
5071	50.70000000	-9.20727991	-0.41092743	9.26778970	10.61497476	0.30668032	5.30081908	14.23194473	-0.78278002	2.69277226	11.13047754	-3.86933674	0.37280783	12.96974444	-1.43582236	-0.40516847	14.93371256	1.28824597	-0.18948705	6.16015870	-2.22921850	9.24477052	11.79750219	-0.23422368	13.88419920
